<svg xmlns="http://www.w3.org/2000/svg" viewBox="0 0 512 512">
  <defs>
    <linearGradient id="bg" x1="0" y1="0" x2="1" y2="1">
      <stop offset="0" stop-color="#6366f1"/>
      <stop offset="0.55" stop-color="#2563eb"/>
      <stop offset="1" stop-color="#06b6d4"/>
    </linearGradient>
    <linearGradient id="pad" x1="0" y1="0" x2="0" y2="1">
      <stop offset="0" stop-color="#ffffff"/>
      <stop offset="1" stop-color="#dbeafe"/>
    </linearGradient>
  </defs>
  <rect width="512" height="512" rx="112" fill="url(#bg)"/>
  <path d="M158 262h196c46 0 72 38 82 92 6 34-12 56-40 56-24 0-38-14-52-32-8-10-16-14-28-14H196c-12 0-20 4-28 14-14 18-28 32-52 32-28 0-46-22-40-56 10-54 36-92 82-92z" fill="url(#pad)"/>
  <path d="M178 300h16v16h16v16h-16v16h-16v-16h-16v-16h16z" fill="#2563eb"/>
  <circle cx="322" cy="334" r="12" fill="#6366f1"/>
  <circle cx="352" cy="308" r="12" fill="#06b6d4"/>
  <circle cx="352" cy="352" r="12" fill="#f59e0b"/>
  <path d="M256 92l130 56-130 56-130-56z" fill="#0f172a"/>
  <path d="M190 184v36c0 14 29 28 66 28s66-14 66-28v-36l-66 28z" fill="#1e293b"/>
  <path d="M386 148v52" stroke="#fbbf24" stroke-width="8" stroke-linecap="round"/>
  <circle cx="386" cy="208" r="10" fill="#fbbf24"/>
</svg>
